%TF.GenerationSoftware,KiCad,Pcbnew,7.0.5*%
%TF.CreationDate,2024-01-30T14:43:17+01:00*%
%TF.ProjectId,DelaySw,44656c61-7953-4772-9e6b-696361645f70,rev?*%
%TF.SameCoordinates,Original*%
%TF.FileFunction,Legend,Top*%
%TF.FilePolarity,Positive*%
%FSLAX46Y46*%
G04 Gerber Fmt 4.6, Leading zero omitted, Abs format (unit mm)*
G04 Created by KiCad (PCBNEW 7.0.5) date 2024-01-30 14:43:17*
%MOMM*%
%LPD*%
G01*
G04 APERTURE LIST*
%ADD10C,0.150000*%
%ADD11C,0.120000*%
G04 APERTURE END LIST*
D10*
X42453112Y-51797009D02*
X42119779Y-51797009D01*
X42119779Y-52320819D02*
X42119779Y-51320819D01*
X42119779Y-51320819D02*
X42595969Y-51320819D01*
X43405493Y-52320819D02*
X43405493Y-51797009D01*
X43405493Y-51797009D02*
X43357874Y-51701771D01*
X43357874Y-51701771D02*
X43262636Y-51654152D01*
X43262636Y-51654152D02*
X43072160Y-51654152D01*
X43072160Y-51654152D02*
X42976922Y-51701771D01*
X43405493Y-52273200D02*
X43310255Y-52320819D01*
X43310255Y-52320819D02*
X43072160Y-52320819D01*
X43072160Y-52320819D02*
X42976922Y-52273200D01*
X42976922Y-52273200D02*
X42929303Y-52177961D01*
X42929303Y-52177961D02*
X42929303Y-52082723D01*
X42929303Y-52082723D02*
X42976922Y-51987485D01*
X42976922Y-51987485D02*
X43072160Y-51939866D01*
X43072160Y-51939866D02*
X43310255Y-51939866D01*
X43310255Y-51939866D02*
X43405493Y-51892247D01*
X43881684Y-52320819D02*
X43881684Y-51320819D01*
X43881684Y-51701771D02*
X43976922Y-51654152D01*
X43976922Y-51654152D02*
X44167398Y-51654152D01*
X44167398Y-51654152D02*
X44262636Y-51701771D01*
X44262636Y-51701771D02*
X44310255Y-51749390D01*
X44310255Y-51749390D02*
X44357874Y-51844628D01*
X44357874Y-51844628D02*
X44357874Y-52130342D01*
X44357874Y-52130342D02*
X44310255Y-52225580D01*
X44310255Y-52225580D02*
X44262636Y-52273200D01*
X44262636Y-52273200D02*
X44167398Y-52320819D01*
X44167398Y-52320819D02*
X43976922Y-52320819D01*
X43976922Y-52320819D02*
X43881684Y-52273200D01*
X44929303Y-52320819D02*
X44834065Y-52273200D01*
X44834065Y-52273200D02*
X44786446Y-52177961D01*
X44786446Y-52177961D02*
X44786446Y-51320819D01*
X45738827Y-52320819D02*
X45738827Y-51797009D01*
X45738827Y-51797009D02*
X45691208Y-51701771D01*
X45691208Y-51701771D02*
X45595970Y-51654152D01*
X45595970Y-51654152D02*
X45405494Y-51654152D01*
X45405494Y-51654152D02*
X45310256Y-51701771D01*
X45738827Y-52273200D02*
X45643589Y-52320819D01*
X45643589Y-52320819D02*
X45405494Y-52320819D01*
X45405494Y-52320819D02*
X45310256Y-52273200D01*
X45310256Y-52273200D02*
X45262637Y-52177961D01*
X45262637Y-52177961D02*
X45262637Y-52082723D01*
X45262637Y-52082723D02*
X45310256Y-51987485D01*
X45310256Y-51987485D02*
X45405494Y-51939866D01*
X45405494Y-51939866D02*
X45643589Y-51939866D01*
X45643589Y-51939866D02*
X45738827Y-51892247D01*
X46215018Y-52320819D02*
X46215018Y-51320819D01*
X46215018Y-51701771D02*
X46310256Y-51654152D01*
X46310256Y-51654152D02*
X46500732Y-51654152D01*
X46500732Y-51654152D02*
X46595970Y-51701771D01*
X46595970Y-51701771D02*
X46643589Y-51749390D01*
X46643589Y-51749390D02*
X46691208Y-51844628D01*
X46691208Y-51844628D02*
X46691208Y-52130342D01*
X46691208Y-52130342D02*
X46643589Y-52225580D01*
X46643589Y-52225580D02*
X46595970Y-52273200D01*
X46595970Y-52273200D02*
X46500732Y-52320819D01*
X46500732Y-52320819D02*
X46310256Y-52320819D01*
X46310256Y-52320819D02*
X46215018Y-52273200D01*
X48453113Y-52320819D02*
X48119780Y-51844628D01*
X47881685Y-52320819D02*
X47881685Y-51320819D01*
X47881685Y-51320819D02*
X48262637Y-51320819D01*
X48262637Y-51320819D02*
X48357875Y-51368438D01*
X48357875Y-51368438D02*
X48405494Y-51416057D01*
X48405494Y-51416057D02*
X48453113Y-51511295D01*
X48453113Y-51511295D02*
X48453113Y-51654152D01*
X48453113Y-51654152D02*
X48405494Y-51749390D01*
X48405494Y-51749390D02*
X48357875Y-51797009D01*
X48357875Y-51797009D02*
X48262637Y-51844628D01*
X48262637Y-51844628D02*
X47881685Y-51844628D01*
X49024542Y-52320819D02*
X48929304Y-52273200D01*
X48929304Y-52273200D02*
X48881685Y-52225580D01*
X48881685Y-52225580D02*
X48834066Y-52130342D01*
X48834066Y-52130342D02*
X48834066Y-51844628D01*
X48834066Y-51844628D02*
X48881685Y-51749390D01*
X48881685Y-51749390D02*
X48929304Y-51701771D01*
X48929304Y-51701771D02*
X49024542Y-51654152D01*
X49024542Y-51654152D02*
X49167399Y-51654152D01*
X49167399Y-51654152D02*
X49262637Y-51701771D01*
X49262637Y-51701771D02*
X49310256Y-51749390D01*
X49310256Y-51749390D02*
X49357875Y-51844628D01*
X49357875Y-51844628D02*
X49357875Y-52130342D01*
X49357875Y-52130342D02*
X49310256Y-52225580D01*
X49310256Y-52225580D02*
X49262637Y-52273200D01*
X49262637Y-52273200D02*
X49167399Y-52320819D01*
X49167399Y-52320819D02*
X49024542Y-52320819D01*
X49786447Y-52320819D02*
X49786447Y-51654152D01*
X49786447Y-51749390D02*
X49834066Y-51701771D01*
X49834066Y-51701771D02*
X49929304Y-51654152D01*
X49929304Y-51654152D02*
X50072161Y-51654152D01*
X50072161Y-51654152D02*
X50167399Y-51701771D01*
X50167399Y-51701771D02*
X50215018Y-51797009D01*
X50215018Y-51797009D02*
X50215018Y-52320819D01*
X50215018Y-51797009D02*
X50262637Y-51701771D01*
X50262637Y-51701771D02*
X50357875Y-51654152D01*
X50357875Y-51654152D02*
X50500732Y-51654152D01*
X50500732Y-51654152D02*
X50595971Y-51701771D01*
X50595971Y-51701771D02*
X50643590Y-51797009D01*
X50643590Y-51797009D02*
X50643590Y-52320819D01*
X51548351Y-52320819D02*
X51548351Y-51797009D01*
X51548351Y-51797009D02*
X51500732Y-51701771D01*
X51500732Y-51701771D02*
X51405494Y-51654152D01*
X51405494Y-51654152D02*
X51215018Y-51654152D01*
X51215018Y-51654152D02*
X51119780Y-51701771D01*
X51548351Y-52273200D02*
X51453113Y-52320819D01*
X51453113Y-52320819D02*
X51215018Y-52320819D01*
X51215018Y-52320819D02*
X51119780Y-52273200D01*
X51119780Y-52273200D02*
X51072161Y-52177961D01*
X51072161Y-52177961D02*
X51072161Y-52082723D01*
X51072161Y-52082723D02*
X51119780Y-51987485D01*
X51119780Y-51987485D02*
X51215018Y-51939866D01*
X51215018Y-51939866D02*
X51453113Y-51939866D01*
X51453113Y-51939866D02*
X51548351Y-51892247D01*
X52453113Y-51654152D02*
X52453113Y-52463676D01*
X52453113Y-52463676D02*
X52405494Y-52558914D01*
X52405494Y-52558914D02*
X52357875Y-52606533D01*
X52357875Y-52606533D02*
X52262637Y-52654152D01*
X52262637Y-52654152D02*
X52119780Y-52654152D01*
X52119780Y-52654152D02*
X52024542Y-52606533D01*
X52453113Y-52273200D02*
X52357875Y-52320819D01*
X52357875Y-52320819D02*
X52167399Y-52320819D01*
X52167399Y-52320819D02*
X52072161Y-52273200D01*
X52072161Y-52273200D02*
X52024542Y-52225580D01*
X52024542Y-52225580D02*
X51976923Y-52130342D01*
X51976923Y-52130342D02*
X51976923Y-51844628D01*
X51976923Y-51844628D02*
X52024542Y-51749390D01*
X52024542Y-51749390D02*
X52072161Y-51701771D01*
X52072161Y-51701771D02*
X52167399Y-51654152D01*
X52167399Y-51654152D02*
X52357875Y-51654152D01*
X52357875Y-51654152D02*
X52453113Y-51701771D01*
X52929304Y-51654152D02*
X52929304Y-52320819D01*
X52929304Y-51749390D02*
X52976923Y-51701771D01*
X52976923Y-51701771D02*
X53072161Y-51654152D01*
X53072161Y-51654152D02*
X53215018Y-51654152D01*
X53215018Y-51654152D02*
X53310256Y-51701771D01*
X53310256Y-51701771D02*
X53357875Y-51797009D01*
X53357875Y-51797009D02*
X53357875Y-52320819D01*
X54262637Y-52320819D02*
X54262637Y-51797009D01*
X54262637Y-51797009D02*
X54215018Y-51701771D01*
X54215018Y-51701771D02*
X54119780Y-51654152D01*
X54119780Y-51654152D02*
X53929304Y-51654152D01*
X53929304Y-51654152D02*
X53834066Y-51701771D01*
X54262637Y-52273200D02*
X54167399Y-52320819D01*
X54167399Y-52320819D02*
X53929304Y-52320819D01*
X53929304Y-52320819D02*
X53834066Y-52273200D01*
X53834066Y-52273200D02*
X53786447Y-52177961D01*
X53786447Y-52177961D02*
X53786447Y-52082723D01*
X53786447Y-52082723D02*
X53834066Y-51987485D01*
X53834066Y-51987485D02*
X53929304Y-51939866D01*
X53929304Y-51939866D02*
X54167399Y-51939866D01*
X54167399Y-51939866D02*
X54262637Y-51892247D01*
X55453114Y-51416057D02*
X55500733Y-51368438D01*
X55500733Y-51368438D02*
X55595971Y-51320819D01*
X55595971Y-51320819D02*
X55834066Y-51320819D01*
X55834066Y-51320819D02*
X55929304Y-51368438D01*
X55929304Y-51368438D02*
X55976923Y-51416057D01*
X55976923Y-51416057D02*
X56024542Y-51511295D01*
X56024542Y-51511295D02*
X56024542Y-51606533D01*
X56024542Y-51606533D02*
X55976923Y-51749390D01*
X55976923Y-51749390D02*
X55405495Y-52320819D01*
X55405495Y-52320819D02*
X56024542Y-52320819D01*
X56643590Y-51320819D02*
X56738828Y-51320819D01*
X56738828Y-51320819D02*
X56834066Y-51368438D01*
X56834066Y-51368438D02*
X56881685Y-51416057D01*
X56881685Y-51416057D02*
X56929304Y-51511295D01*
X56929304Y-51511295D02*
X56976923Y-51701771D01*
X56976923Y-51701771D02*
X56976923Y-51939866D01*
X56976923Y-51939866D02*
X56929304Y-52130342D01*
X56929304Y-52130342D02*
X56881685Y-52225580D01*
X56881685Y-52225580D02*
X56834066Y-52273200D01*
X56834066Y-52273200D02*
X56738828Y-52320819D01*
X56738828Y-52320819D02*
X56643590Y-52320819D01*
X56643590Y-52320819D02*
X56548352Y-52273200D01*
X56548352Y-52273200D02*
X56500733Y-52225580D01*
X56500733Y-52225580D02*
X56453114Y-52130342D01*
X56453114Y-52130342D02*
X56405495Y-51939866D01*
X56405495Y-51939866D02*
X56405495Y-51701771D01*
X56405495Y-51701771D02*
X56453114Y-51511295D01*
X56453114Y-51511295D02*
X56500733Y-51416057D01*
X56500733Y-51416057D02*
X56548352Y-51368438D01*
X56548352Y-51368438D02*
X56643590Y-51320819D01*
X57357876Y-51416057D02*
X57405495Y-51368438D01*
X57405495Y-51368438D02*
X57500733Y-51320819D01*
X57500733Y-51320819D02*
X57738828Y-51320819D01*
X57738828Y-51320819D02*
X57834066Y-51368438D01*
X57834066Y-51368438D02*
X57881685Y-51416057D01*
X57881685Y-51416057D02*
X57929304Y-51511295D01*
X57929304Y-51511295D02*
X57929304Y-51606533D01*
X57929304Y-51606533D02*
X57881685Y-51749390D01*
X57881685Y-51749390D02*
X57310257Y-52320819D01*
X57310257Y-52320819D02*
X57929304Y-52320819D01*
X58786447Y-51654152D02*
X58786447Y-52320819D01*
X58548352Y-51273200D02*
X58310257Y-51987485D01*
X58310257Y-51987485D02*
X58929304Y-51987485D01*
D11*
%TO.C,C1*%
X44269252Y-32739000D02*
X43746748Y-32739000D01*
X44269252Y-31269000D02*
X43746748Y-31269000D01*
%TO.C,Q1*%
X34368500Y-46264000D02*
X36043500Y-46264000D01*
X34368500Y-46264000D02*
X33718500Y-46264000D01*
X34368500Y-43144000D02*
X35018500Y-43144000D01*
X34368500Y-43144000D02*
X33718500Y-43144000D01*
%TO.C,R3*%
X33054936Y-37317000D02*
X34509064Y-37317000D01*
X33054936Y-39137000D02*
X34509064Y-39137000D01*
%TO.C,D2*%
X30648000Y-43383000D02*
X30648000Y-40183000D01*
X27048000Y-43383000D02*
X30648000Y-43383000D01*
X27048000Y-40183000D02*
X30648000Y-40183000D01*
%TO.C,R1*%
X49376064Y-36295000D02*
X48921936Y-36295000D01*
X49376064Y-34825000D02*
X48921936Y-34825000D01*
%TO.C,SW1*%
X46438000Y-42910000D02*
X46438000Y-40910000D01*
X45438000Y-44210000D02*
X44988000Y-44660000D01*
X45438000Y-39610000D02*
X44988000Y-39160000D01*
X44988000Y-44660000D02*
X42388000Y-44660000D01*
X44988000Y-39160000D02*
X42388000Y-39160000D01*
X41938000Y-44210000D02*
X42388000Y-44660000D01*
X41938000Y-39610000D02*
X42388000Y-39160000D01*
X40938000Y-42910000D02*
X40938000Y-40910000D01*
%TO.C,R2*%
X44192564Y-36295000D02*
X43738436Y-36295000D01*
X44192564Y-34825000D02*
X43738436Y-34825000D01*
%TD*%
M02*
