%TF.GenerationSoftware,KiCad,Pcbnew,7.0.5*%
%TF.CreationDate,2024-01-30T00:46:46+01:00*%
%TF.ProjectId,DelaySw,44656c61-7953-4772-9e6b-696361645f70,rev?*%
%TF.SameCoordinates,Original*%
%TF.FileFunction,Drillmap*%
%TF.FilePolarity,Positive*%
%FSLAX45Y45*%
G04 Gerber Fmt 4.5, Leading zero omitted, Abs format (unit mm)*
G04 Created by KiCad (PCBNEW 7.0.5) date 2024-01-30 00:46:46*
%MOMM*%
%LPD*%
G01*
G04 APERTURE LIST*
%ADD10C,0.100000*%
%ADD11C,0.200000*%
%ADD12C,0.040000*%
%ADD13C,0.190000*%
%ADD14C,0.355600*%
G04 APERTURE END LIST*
D10*
X6289006Y-4203700D02*
G75*
G03*
X6289006Y-4203700I-1975122J0D01*
G01*
D11*
D12*
X3777300Y-4729800D02*
X3817300Y-4769800D01*
X3817300Y-4729800D02*
X3777300Y-4769800D01*
D13*
X4019900Y-2870200D02*
G75*
G03*
X4019900Y-2870200I-95000J0D01*
G01*
X4019900Y-5410200D02*
G75*
G03*
X4019900Y-5410200I-95000J0D01*
G01*
D14*
X5918200Y-4000500D02*
X5918200Y-4356100D01*
X5740400Y-4178300D02*
X6096000Y-4178300D01*
D11*
X2594539Y-6495305D02*
X2594539Y-6295305D01*
X2594539Y-6295305D02*
X2642158Y-6295305D01*
X2642158Y-6295305D02*
X2670730Y-6304829D01*
X2670730Y-6304829D02*
X2689777Y-6323877D01*
X2689777Y-6323877D02*
X2699301Y-6342924D01*
X2699301Y-6342924D02*
X2708825Y-6381020D01*
X2708825Y-6381020D02*
X2708825Y-6409591D01*
X2708825Y-6409591D02*
X2699301Y-6447686D01*
X2699301Y-6447686D02*
X2689777Y-6466734D01*
X2689777Y-6466734D02*
X2670730Y-6485782D01*
X2670730Y-6485782D02*
X2642158Y-6495305D01*
X2642158Y-6495305D02*
X2594539Y-6495305D01*
X2794539Y-6495305D02*
X2794539Y-6361972D01*
X2794539Y-6400067D02*
X2804063Y-6381020D01*
X2804063Y-6381020D02*
X2813587Y-6371496D01*
X2813587Y-6371496D02*
X2832634Y-6361972D01*
X2832634Y-6361972D02*
X2851682Y-6361972D01*
X2918349Y-6495305D02*
X2918349Y-6361972D01*
X2918349Y-6295305D02*
X2908825Y-6304829D01*
X2908825Y-6304829D02*
X2918349Y-6314353D01*
X2918349Y-6314353D02*
X2927872Y-6304829D01*
X2927872Y-6304829D02*
X2918349Y-6295305D01*
X2918349Y-6295305D02*
X2918349Y-6314353D01*
X3042158Y-6495305D02*
X3023111Y-6485782D01*
X3023111Y-6485782D02*
X3013587Y-6466734D01*
X3013587Y-6466734D02*
X3013587Y-6295305D01*
X3146920Y-6495305D02*
X3127872Y-6485782D01*
X3127872Y-6485782D02*
X3118349Y-6466734D01*
X3118349Y-6466734D02*
X3118349Y-6295305D01*
X3375492Y-6495305D02*
X3375492Y-6295305D01*
X3375492Y-6295305D02*
X3442158Y-6438163D01*
X3442158Y-6438163D02*
X3508825Y-6295305D01*
X3508825Y-6295305D02*
X3508825Y-6495305D01*
X3689777Y-6495305D02*
X3689777Y-6390544D01*
X3689777Y-6390544D02*
X3680253Y-6371496D01*
X3680253Y-6371496D02*
X3661206Y-6361972D01*
X3661206Y-6361972D02*
X3623111Y-6361972D01*
X3623111Y-6361972D02*
X3604063Y-6371496D01*
X3689777Y-6485782D02*
X3670730Y-6495305D01*
X3670730Y-6495305D02*
X3623111Y-6495305D01*
X3623111Y-6495305D02*
X3604063Y-6485782D01*
X3604063Y-6485782D02*
X3594539Y-6466734D01*
X3594539Y-6466734D02*
X3594539Y-6447686D01*
X3594539Y-6447686D02*
X3604063Y-6428639D01*
X3604063Y-6428639D02*
X3623111Y-6419115D01*
X3623111Y-6419115D02*
X3670730Y-6419115D01*
X3670730Y-6419115D02*
X3689777Y-6409591D01*
X3785015Y-6361972D02*
X3785015Y-6561972D01*
X3785015Y-6371496D02*
X3804063Y-6361972D01*
X3804063Y-6361972D02*
X3842158Y-6361972D01*
X3842158Y-6361972D02*
X3861206Y-6371496D01*
X3861206Y-6371496D02*
X3870730Y-6381020D01*
X3870730Y-6381020D02*
X3880253Y-6400067D01*
X3880253Y-6400067D02*
X3880253Y-6457210D01*
X3880253Y-6457210D02*
X3870730Y-6476258D01*
X3870730Y-6476258D02*
X3861206Y-6485782D01*
X3861206Y-6485782D02*
X3842158Y-6495305D01*
X3842158Y-6495305D02*
X3804063Y-6495305D01*
X3804063Y-6495305D02*
X3785015Y-6485782D01*
X3965968Y-6476258D02*
X3975492Y-6485782D01*
X3975492Y-6485782D02*
X3965968Y-6495305D01*
X3965968Y-6495305D02*
X3956444Y-6485782D01*
X3956444Y-6485782D02*
X3965968Y-6476258D01*
X3965968Y-6476258D02*
X3965968Y-6495305D01*
X3965968Y-6371496D02*
X3975492Y-6381020D01*
X3975492Y-6381020D02*
X3965968Y-6390544D01*
X3965968Y-6390544D02*
X3956444Y-6381020D01*
X3956444Y-6381020D02*
X3965968Y-6371496D01*
X3965968Y-6371496D02*
X3965968Y-6390544D01*
D12*
X2293762Y-6803822D02*
X2333762Y-6843822D01*
X2333762Y-6803822D02*
X2293762Y-6843822D01*
D11*
X2632634Y-6715305D02*
X2651682Y-6715305D01*
X2651682Y-6715305D02*
X2670730Y-6724829D01*
X2670730Y-6724829D02*
X2680254Y-6734353D01*
X2680254Y-6734353D02*
X2689777Y-6753401D01*
X2689777Y-6753401D02*
X2699301Y-6791496D01*
X2699301Y-6791496D02*
X2699301Y-6839115D01*
X2699301Y-6839115D02*
X2689777Y-6877210D01*
X2689777Y-6877210D02*
X2680254Y-6896258D01*
X2680254Y-6896258D02*
X2670730Y-6905782D01*
X2670730Y-6905782D02*
X2651682Y-6915305D01*
X2651682Y-6915305D02*
X2632634Y-6915305D01*
X2632634Y-6915305D02*
X2613587Y-6905782D01*
X2613587Y-6905782D02*
X2604063Y-6896258D01*
X2604063Y-6896258D02*
X2594539Y-6877210D01*
X2594539Y-6877210D02*
X2585015Y-6839115D01*
X2585015Y-6839115D02*
X2585015Y-6791496D01*
X2585015Y-6791496D02*
X2594539Y-6753401D01*
X2594539Y-6753401D02*
X2604063Y-6734353D01*
X2604063Y-6734353D02*
X2613587Y-6724829D01*
X2613587Y-6724829D02*
X2632634Y-6715305D01*
X2785015Y-6896258D02*
X2794539Y-6905782D01*
X2794539Y-6905782D02*
X2785015Y-6915305D01*
X2785015Y-6915305D02*
X2775492Y-6905782D01*
X2775492Y-6905782D02*
X2785015Y-6896258D01*
X2785015Y-6896258D02*
X2785015Y-6915305D01*
X2965968Y-6781972D02*
X2965968Y-6915305D01*
X2918349Y-6705782D02*
X2870730Y-6848639D01*
X2870730Y-6848639D02*
X2994539Y-6848639D01*
X3108825Y-6715305D02*
X3127873Y-6715305D01*
X3127873Y-6715305D02*
X3146920Y-6724829D01*
X3146920Y-6724829D02*
X3156444Y-6734353D01*
X3156444Y-6734353D02*
X3165968Y-6753401D01*
X3165968Y-6753401D02*
X3175492Y-6791496D01*
X3175492Y-6791496D02*
X3175492Y-6839115D01*
X3175492Y-6839115D02*
X3165968Y-6877210D01*
X3165968Y-6877210D02*
X3156444Y-6896258D01*
X3156444Y-6896258D02*
X3146920Y-6905782D01*
X3146920Y-6905782D02*
X3127873Y-6915305D01*
X3127873Y-6915305D02*
X3108825Y-6915305D01*
X3108825Y-6915305D02*
X3089777Y-6905782D01*
X3089777Y-6905782D02*
X3080253Y-6896258D01*
X3080253Y-6896258D02*
X3070730Y-6877210D01*
X3070730Y-6877210D02*
X3061206Y-6839115D01*
X3061206Y-6839115D02*
X3061206Y-6791496D01*
X3061206Y-6791496D02*
X3070730Y-6753401D01*
X3070730Y-6753401D02*
X3080253Y-6734353D01*
X3080253Y-6734353D02*
X3089777Y-6724829D01*
X3089777Y-6724829D02*
X3108825Y-6715305D01*
X3299301Y-6715305D02*
X3318349Y-6715305D01*
X3318349Y-6715305D02*
X3337396Y-6724829D01*
X3337396Y-6724829D02*
X3346920Y-6734353D01*
X3346920Y-6734353D02*
X3356444Y-6753401D01*
X3356444Y-6753401D02*
X3365968Y-6791496D01*
X3365968Y-6791496D02*
X3365968Y-6839115D01*
X3365968Y-6839115D02*
X3356444Y-6877210D01*
X3356444Y-6877210D02*
X3346920Y-6896258D01*
X3346920Y-6896258D02*
X3337396Y-6905782D01*
X3337396Y-6905782D02*
X3318349Y-6915305D01*
X3318349Y-6915305D02*
X3299301Y-6915305D01*
X3299301Y-6915305D02*
X3280253Y-6905782D01*
X3280253Y-6905782D02*
X3270730Y-6896258D01*
X3270730Y-6896258D02*
X3261206Y-6877210D01*
X3261206Y-6877210D02*
X3251682Y-6839115D01*
X3251682Y-6839115D02*
X3251682Y-6791496D01*
X3251682Y-6791496D02*
X3261206Y-6753401D01*
X3261206Y-6753401D02*
X3270730Y-6734353D01*
X3270730Y-6734353D02*
X3280253Y-6724829D01*
X3280253Y-6724829D02*
X3299301Y-6715305D01*
X3451682Y-6915305D02*
X3451682Y-6781972D01*
X3451682Y-6801020D02*
X3461206Y-6791496D01*
X3461206Y-6791496D02*
X3480253Y-6781972D01*
X3480253Y-6781972D02*
X3508825Y-6781972D01*
X3508825Y-6781972D02*
X3527873Y-6791496D01*
X3527873Y-6791496D02*
X3537396Y-6810544D01*
X3537396Y-6810544D02*
X3537396Y-6915305D01*
X3537396Y-6810544D02*
X3546920Y-6791496D01*
X3546920Y-6791496D02*
X3565968Y-6781972D01*
X3565968Y-6781972D02*
X3594539Y-6781972D01*
X3594539Y-6781972D02*
X3613587Y-6791496D01*
X3613587Y-6791496D02*
X3623111Y-6810544D01*
X3623111Y-6810544D02*
X3623111Y-6915305D01*
X3718349Y-6915305D02*
X3718349Y-6781972D01*
X3718349Y-6801020D02*
X3727873Y-6791496D01*
X3727873Y-6791496D02*
X3746920Y-6781972D01*
X3746920Y-6781972D02*
X3775492Y-6781972D01*
X3775492Y-6781972D02*
X3794539Y-6791496D01*
X3794539Y-6791496D02*
X3804063Y-6810544D01*
X3804063Y-6810544D02*
X3804063Y-6915305D01*
X3804063Y-6810544D02*
X3813587Y-6791496D01*
X3813587Y-6791496D02*
X3832634Y-6781972D01*
X3832634Y-6781972D02*
X3861206Y-6781972D01*
X3861206Y-6781972D02*
X3880254Y-6791496D01*
X3880254Y-6791496D02*
X3889777Y-6810544D01*
X3889777Y-6810544D02*
X3889777Y-6915305D01*
X4280254Y-6705782D02*
X4108825Y-6962924D01*
X4537397Y-6715305D02*
X4556444Y-6715305D01*
X4556444Y-6715305D02*
X4575492Y-6724829D01*
X4575492Y-6724829D02*
X4585016Y-6734353D01*
X4585016Y-6734353D02*
X4594539Y-6753401D01*
X4594539Y-6753401D02*
X4604063Y-6791496D01*
X4604063Y-6791496D02*
X4604063Y-6839115D01*
X4604063Y-6839115D02*
X4594539Y-6877210D01*
X4594539Y-6877210D02*
X4585016Y-6896258D01*
X4585016Y-6896258D02*
X4575492Y-6905782D01*
X4575492Y-6905782D02*
X4556444Y-6915305D01*
X4556444Y-6915305D02*
X4537397Y-6915305D01*
X4537397Y-6915305D02*
X4518349Y-6905782D01*
X4518349Y-6905782D02*
X4508825Y-6896258D01*
X4508825Y-6896258D02*
X4499301Y-6877210D01*
X4499301Y-6877210D02*
X4489778Y-6839115D01*
X4489778Y-6839115D02*
X4489778Y-6791496D01*
X4489778Y-6791496D02*
X4499301Y-6753401D01*
X4499301Y-6753401D02*
X4508825Y-6734353D01*
X4508825Y-6734353D02*
X4518349Y-6724829D01*
X4518349Y-6724829D02*
X4537397Y-6715305D01*
X4689778Y-6896258D02*
X4699301Y-6905782D01*
X4699301Y-6905782D02*
X4689778Y-6915305D01*
X4689778Y-6915305D02*
X4680254Y-6905782D01*
X4680254Y-6905782D02*
X4689778Y-6896258D01*
X4689778Y-6896258D02*
X4689778Y-6915305D01*
X4823111Y-6715305D02*
X4842159Y-6715305D01*
X4842159Y-6715305D02*
X4861206Y-6724829D01*
X4861206Y-6724829D02*
X4870730Y-6734353D01*
X4870730Y-6734353D02*
X4880254Y-6753401D01*
X4880254Y-6753401D02*
X4889778Y-6791496D01*
X4889778Y-6791496D02*
X4889778Y-6839115D01*
X4889778Y-6839115D02*
X4880254Y-6877210D01*
X4880254Y-6877210D02*
X4870730Y-6896258D01*
X4870730Y-6896258D02*
X4861206Y-6905782D01*
X4861206Y-6905782D02*
X4842159Y-6915305D01*
X4842159Y-6915305D02*
X4823111Y-6915305D01*
X4823111Y-6915305D02*
X4804063Y-6905782D01*
X4804063Y-6905782D02*
X4794539Y-6896258D01*
X4794539Y-6896258D02*
X4785016Y-6877210D01*
X4785016Y-6877210D02*
X4775492Y-6839115D01*
X4775492Y-6839115D02*
X4775492Y-6791496D01*
X4775492Y-6791496D02*
X4785016Y-6753401D01*
X4785016Y-6753401D02*
X4794539Y-6734353D01*
X4794539Y-6734353D02*
X4804063Y-6724829D01*
X4804063Y-6724829D02*
X4823111Y-6715305D01*
X5080254Y-6915305D02*
X4965968Y-6915305D01*
X5023111Y-6915305D02*
X5023111Y-6715305D01*
X5023111Y-6715305D02*
X5004063Y-6743877D01*
X5004063Y-6743877D02*
X4985016Y-6762924D01*
X4985016Y-6762924D02*
X4965968Y-6772448D01*
X5261206Y-6715305D02*
X5165968Y-6715305D01*
X5165968Y-6715305D02*
X5156444Y-6810544D01*
X5156444Y-6810544D02*
X5165968Y-6801020D01*
X5165968Y-6801020D02*
X5185016Y-6791496D01*
X5185016Y-6791496D02*
X5232635Y-6791496D01*
X5232635Y-6791496D02*
X5251682Y-6801020D01*
X5251682Y-6801020D02*
X5261206Y-6810544D01*
X5261206Y-6810544D02*
X5270730Y-6829591D01*
X5270730Y-6829591D02*
X5270730Y-6877210D01*
X5270730Y-6877210D02*
X5261206Y-6896258D01*
X5261206Y-6896258D02*
X5251682Y-6905782D01*
X5251682Y-6905782D02*
X5232635Y-6915305D01*
X5232635Y-6915305D02*
X5185016Y-6915305D01*
X5185016Y-6915305D02*
X5165968Y-6905782D01*
X5165968Y-6905782D02*
X5156444Y-6896258D01*
X5337397Y-6715305D02*
X5470730Y-6715305D01*
X5470730Y-6715305D02*
X5385016Y-6915305D01*
X5537397Y-6715305D02*
X5537397Y-6753401D01*
X5613587Y-6715305D02*
X5613587Y-6753401D01*
X5908825Y-6991496D02*
X5899301Y-6981972D01*
X5899301Y-6981972D02*
X5880254Y-6953401D01*
X5880254Y-6953401D02*
X5870730Y-6934353D01*
X5870730Y-6934353D02*
X5861206Y-6905782D01*
X5861206Y-6905782D02*
X5851682Y-6858163D01*
X5851682Y-6858163D02*
X5851682Y-6820067D01*
X5851682Y-6820067D02*
X5861206Y-6772448D01*
X5861206Y-6772448D02*
X5870730Y-6743877D01*
X5870730Y-6743877D02*
X5880254Y-6724829D01*
X5880254Y-6724829D02*
X5899301Y-6696258D01*
X5899301Y-6696258D02*
X5908825Y-6686734D01*
X6089778Y-6915305D02*
X5975492Y-6915305D01*
X6032635Y-6915305D02*
X6032635Y-6715305D01*
X6032635Y-6715305D02*
X6013587Y-6743877D01*
X6013587Y-6743877D02*
X5994539Y-6762924D01*
X5994539Y-6762924D02*
X5975492Y-6772448D01*
X6327873Y-6915305D02*
X6327873Y-6715305D01*
X6413587Y-6915305D02*
X6413587Y-6810544D01*
X6413587Y-6810544D02*
X6404063Y-6791496D01*
X6404063Y-6791496D02*
X6385016Y-6781972D01*
X6385016Y-6781972D02*
X6356444Y-6781972D01*
X6356444Y-6781972D02*
X6337397Y-6791496D01*
X6337397Y-6791496D02*
X6327873Y-6801020D01*
X6537397Y-6915305D02*
X6518349Y-6905782D01*
X6518349Y-6905782D02*
X6508825Y-6896258D01*
X6508825Y-6896258D02*
X6499301Y-6877210D01*
X6499301Y-6877210D02*
X6499301Y-6820067D01*
X6499301Y-6820067D02*
X6508825Y-6801020D01*
X6508825Y-6801020D02*
X6518349Y-6791496D01*
X6518349Y-6791496D02*
X6537397Y-6781972D01*
X6537397Y-6781972D02*
X6565968Y-6781972D01*
X6565968Y-6781972D02*
X6585016Y-6791496D01*
X6585016Y-6791496D02*
X6594540Y-6801020D01*
X6594540Y-6801020D02*
X6604063Y-6820067D01*
X6604063Y-6820067D02*
X6604063Y-6877210D01*
X6604063Y-6877210D02*
X6594540Y-6896258D01*
X6594540Y-6896258D02*
X6585016Y-6905782D01*
X6585016Y-6905782D02*
X6565968Y-6915305D01*
X6565968Y-6915305D02*
X6537397Y-6915305D01*
X6718349Y-6915305D02*
X6699301Y-6905782D01*
X6699301Y-6905782D02*
X6689778Y-6886734D01*
X6689778Y-6886734D02*
X6689778Y-6715305D01*
X6870730Y-6905782D02*
X6851682Y-6915305D01*
X6851682Y-6915305D02*
X6813587Y-6915305D01*
X6813587Y-6915305D02*
X6794540Y-6905782D01*
X6794540Y-6905782D02*
X6785016Y-6886734D01*
X6785016Y-6886734D02*
X6785016Y-6810544D01*
X6785016Y-6810544D02*
X6794540Y-6791496D01*
X6794540Y-6791496D02*
X6813587Y-6781972D01*
X6813587Y-6781972D02*
X6851682Y-6781972D01*
X6851682Y-6781972D02*
X6870730Y-6791496D01*
X6870730Y-6791496D02*
X6880254Y-6810544D01*
X6880254Y-6810544D02*
X6880254Y-6829591D01*
X6880254Y-6829591D02*
X6785016Y-6848639D01*
X6946921Y-6991496D02*
X6956444Y-6981972D01*
X6956444Y-6981972D02*
X6975492Y-6953401D01*
X6975492Y-6953401D02*
X6985016Y-6934353D01*
X6985016Y-6934353D02*
X6994540Y-6905782D01*
X6994540Y-6905782D02*
X7004063Y-6858163D01*
X7004063Y-6858163D02*
X7004063Y-6820067D01*
X7004063Y-6820067D02*
X6994540Y-6772448D01*
X6994540Y-6772448D02*
X6985016Y-6743877D01*
X6985016Y-6743877D02*
X6975492Y-6724829D01*
X6975492Y-6724829D02*
X6956444Y-6696258D01*
X6956444Y-6696258D02*
X6946921Y-6686734D01*
D13*
X2333762Y-7087822D02*
G75*
G03*
X2333762Y-7087822I-95000J0D01*
G01*
D11*
X2699301Y-7179305D02*
X2585015Y-7179305D01*
X2642158Y-7179305D02*
X2642158Y-6979305D01*
X2642158Y-6979305D02*
X2623111Y-7007877D01*
X2623111Y-7007877D02*
X2604063Y-7026924D01*
X2604063Y-7026924D02*
X2585015Y-7036448D01*
X2785015Y-7160258D02*
X2794539Y-7169782D01*
X2794539Y-7169782D02*
X2785015Y-7179305D01*
X2785015Y-7179305D02*
X2775492Y-7169782D01*
X2775492Y-7169782D02*
X2785015Y-7160258D01*
X2785015Y-7160258D02*
X2785015Y-7179305D01*
X2889777Y-7179305D02*
X2927872Y-7179305D01*
X2927872Y-7179305D02*
X2946920Y-7169782D01*
X2946920Y-7169782D02*
X2956444Y-7160258D01*
X2956444Y-7160258D02*
X2975492Y-7131686D01*
X2975492Y-7131686D02*
X2985015Y-7093591D01*
X2985015Y-7093591D02*
X2985015Y-7017401D01*
X2985015Y-7017401D02*
X2975492Y-6998353D01*
X2975492Y-6998353D02*
X2965968Y-6988829D01*
X2965968Y-6988829D02*
X2946920Y-6979305D01*
X2946920Y-6979305D02*
X2908825Y-6979305D01*
X2908825Y-6979305D02*
X2889777Y-6988829D01*
X2889777Y-6988829D02*
X2880253Y-6998353D01*
X2880253Y-6998353D02*
X2870730Y-7017401D01*
X2870730Y-7017401D02*
X2870730Y-7065020D01*
X2870730Y-7065020D02*
X2880253Y-7084067D01*
X2880253Y-7084067D02*
X2889777Y-7093591D01*
X2889777Y-7093591D02*
X2908825Y-7103115D01*
X2908825Y-7103115D02*
X2946920Y-7103115D01*
X2946920Y-7103115D02*
X2965968Y-7093591D01*
X2965968Y-7093591D02*
X2975492Y-7084067D01*
X2975492Y-7084067D02*
X2985015Y-7065020D01*
X3108825Y-6979305D02*
X3127873Y-6979305D01*
X3127873Y-6979305D02*
X3146920Y-6988829D01*
X3146920Y-6988829D02*
X3156444Y-6998353D01*
X3156444Y-6998353D02*
X3165968Y-7017401D01*
X3165968Y-7017401D02*
X3175492Y-7055496D01*
X3175492Y-7055496D02*
X3175492Y-7103115D01*
X3175492Y-7103115D02*
X3165968Y-7141210D01*
X3165968Y-7141210D02*
X3156444Y-7160258D01*
X3156444Y-7160258D02*
X3146920Y-7169782D01*
X3146920Y-7169782D02*
X3127873Y-7179305D01*
X3127873Y-7179305D02*
X3108825Y-7179305D01*
X3108825Y-7179305D02*
X3089777Y-7169782D01*
X3089777Y-7169782D02*
X3080253Y-7160258D01*
X3080253Y-7160258D02*
X3070730Y-7141210D01*
X3070730Y-7141210D02*
X3061206Y-7103115D01*
X3061206Y-7103115D02*
X3061206Y-7055496D01*
X3061206Y-7055496D02*
X3070730Y-7017401D01*
X3070730Y-7017401D02*
X3080253Y-6998353D01*
X3080253Y-6998353D02*
X3089777Y-6988829D01*
X3089777Y-6988829D02*
X3108825Y-6979305D01*
X3299301Y-6979305D02*
X3318349Y-6979305D01*
X3318349Y-6979305D02*
X3337396Y-6988829D01*
X3337396Y-6988829D02*
X3346920Y-6998353D01*
X3346920Y-6998353D02*
X3356444Y-7017401D01*
X3356444Y-7017401D02*
X3365968Y-7055496D01*
X3365968Y-7055496D02*
X3365968Y-7103115D01*
X3365968Y-7103115D02*
X3356444Y-7141210D01*
X3356444Y-7141210D02*
X3346920Y-7160258D01*
X3346920Y-7160258D02*
X3337396Y-7169782D01*
X3337396Y-7169782D02*
X3318349Y-7179305D01*
X3318349Y-7179305D02*
X3299301Y-7179305D01*
X3299301Y-7179305D02*
X3280253Y-7169782D01*
X3280253Y-7169782D02*
X3270730Y-7160258D01*
X3270730Y-7160258D02*
X3261206Y-7141210D01*
X3261206Y-7141210D02*
X3251682Y-7103115D01*
X3251682Y-7103115D02*
X3251682Y-7055496D01*
X3251682Y-7055496D02*
X3261206Y-7017401D01*
X3261206Y-7017401D02*
X3270730Y-6998353D01*
X3270730Y-6998353D02*
X3280253Y-6988829D01*
X3280253Y-6988829D02*
X3299301Y-6979305D01*
X3451682Y-7179305D02*
X3451682Y-7045972D01*
X3451682Y-7065020D02*
X3461206Y-7055496D01*
X3461206Y-7055496D02*
X3480253Y-7045972D01*
X3480253Y-7045972D02*
X3508825Y-7045972D01*
X3508825Y-7045972D02*
X3527873Y-7055496D01*
X3527873Y-7055496D02*
X3537396Y-7074544D01*
X3537396Y-7074544D02*
X3537396Y-7179305D01*
X3537396Y-7074544D02*
X3546920Y-7055496D01*
X3546920Y-7055496D02*
X3565968Y-7045972D01*
X3565968Y-7045972D02*
X3594539Y-7045972D01*
X3594539Y-7045972D02*
X3613587Y-7055496D01*
X3613587Y-7055496D02*
X3623111Y-7074544D01*
X3623111Y-7074544D02*
X3623111Y-7179305D01*
X3718349Y-7179305D02*
X3718349Y-7045972D01*
X3718349Y-7065020D02*
X3727873Y-7055496D01*
X3727873Y-7055496D02*
X3746920Y-7045972D01*
X3746920Y-7045972D02*
X3775492Y-7045972D01*
X3775492Y-7045972D02*
X3794539Y-7055496D01*
X3794539Y-7055496D02*
X3804063Y-7074544D01*
X3804063Y-7074544D02*
X3804063Y-7179305D01*
X3804063Y-7074544D02*
X3813587Y-7055496D01*
X3813587Y-7055496D02*
X3832634Y-7045972D01*
X3832634Y-7045972D02*
X3861206Y-7045972D01*
X3861206Y-7045972D02*
X3880254Y-7055496D01*
X3880254Y-7055496D02*
X3889777Y-7074544D01*
X3889777Y-7074544D02*
X3889777Y-7179305D01*
X4280254Y-6969782D02*
X4108825Y-7226924D01*
X4537397Y-6979305D02*
X4556444Y-6979305D01*
X4556444Y-6979305D02*
X4575492Y-6988829D01*
X4575492Y-6988829D02*
X4585016Y-6998353D01*
X4585016Y-6998353D02*
X4594539Y-7017401D01*
X4594539Y-7017401D02*
X4604063Y-7055496D01*
X4604063Y-7055496D02*
X4604063Y-7103115D01*
X4604063Y-7103115D02*
X4594539Y-7141210D01*
X4594539Y-7141210D02*
X4585016Y-7160258D01*
X4585016Y-7160258D02*
X4575492Y-7169782D01*
X4575492Y-7169782D02*
X4556444Y-7179305D01*
X4556444Y-7179305D02*
X4537397Y-7179305D01*
X4537397Y-7179305D02*
X4518349Y-7169782D01*
X4518349Y-7169782D02*
X4508825Y-7160258D01*
X4508825Y-7160258D02*
X4499301Y-7141210D01*
X4499301Y-7141210D02*
X4489778Y-7103115D01*
X4489778Y-7103115D02*
X4489778Y-7055496D01*
X4489778Y-7055496D02*
X4499301Y-7017401D01*
X4499301Y-7017401D02*
X4508825Y-6998353D01*
X4508825Y-6998353D02*
X4518349Y-6988829D01*
X4518349Y-6988829D02*
X4537397Y-6979305D01*
X4689778Y-7160258D02*
X4699301Y-7169782D01*
X4699301Y-7169782D02*
X4689778Y-7179305D01*
X4689778Y-7179305D02*
X4680254Y-7169782D01*
X4680254Y-7169782D02*
X4689778Y-7160258D01*
X4689778Y-7160258D02*
X4689778Y-7179305D01*
X4823111Y-6979305D02*
X4842159Y-6979305D01*
X4842159Y-6979305D02*
X4861206Y-6988829D01*
X4861206Y-6988829D02*
X4870730Y-6998353D01*
X4870730Y-6998353D02*
X4880254Y-7017401D01*
X4880254Y-7017401D02*
X4889778Y-7055496D01*
X4889778Y-7055496D02*
X4889778Y-7103115D01*
X4889778Y-7103115D02*
X4880254Y-7141210D01*
X4880254Y-7141210D02*
X4870730Y-7160258D01*
X4870730Y-7160258D02*
X4861206Y-7169782D01*
X4861206Y-7169782D02*
X4842159Y-7179305D01*
X4842159Y-7179305D02*
X4823111Y-7179305D01*
X4823111Y-7179305D02*
X4804063Y-7169782D01*
X4804063Y-7169782D02*
X4794539Y-7160258D01*
X4794539Y-7160258D02*
X4785016Y-7141210D01*
X4785016Y-7141210D02*
X4775492Y-7103115D01*
X4775492Y-7103115D02*
X4775492Y-7055496D01*
X4775492Y-7055496D02*
X4785016Y-7017401D01*
X4785016Y-7017401D02*
X4794539Y-6998353D01*
X4794539Y-6998353D02*
X4804063Y-6988829D01*
X4804063Y-6988829D02*
X4823111Y-6979305D01*
X4956444Y-6979305D02*
X5089778Y-6979305D01*
X5089778Y-6979305D02*
X5004063Y-7179305D01*
X5251682Y-7045972D02*
X5251682Y-7179305D01*
X5204063Y-6969782D02*
X5156444Y-7112639D01*
X5156444Y-7112639D02*
X5280254Y-7112639D01*
X5385016Y-7065020D02*
X5365968Y-7055496D01*
X5365968Y-7055496D02*
X5356444Y-7045972D01*
X5356444Y-7045972D02*
X5346920Y-7026924D01*
X5346920Y-7026924D02*
X5346920Y-7017401D01*
X5346920Y-7017401D02*
X5356444Y-6998353D01*
X5356444Y-6998353D02*
X5365968Y-6988829D01*
X5365968Y-6988829D02*
X5385016Y-6979305D01*
X5385016Y-6979305D02*
X5423111Y-6979305D01*
X5423111Y-6979305D02*
X5442159Y-6988829D01*
X5442159Y-6988829D02*
X5451682Y-6998353D01*
X5451682Y-6998353D02*
X5461206Y-7017401D01*
X5461206Y-7017401D02*
X5461206Y-7026924D01*
X5461206Y-7026924D02*
X5451682Y-7045972D01*
X5451682Y-7045972D02*
X5442159Y-7055496D01*
X5442159Y-7055496D02*
X5423111Y-7065020D01*
X5423111Y-7065020D02*
X5385016Y-7065020D01*
X5385016Y-7065020D02*
X5365968Y-7074544D01*
X5365968Y-7074544D02*
X5356444Y-7084067D01*
X5356444Y-7084067D02*
X5346920Y-7103115D01*
X5346920Y-7103115D02*
X5346920Y-7141210D01*
X5346920Y-7141210D02*
X5356444Y-7160258D01*
X5356444Y-7160258D02*
X5365968Y-7169782D01*
X5365968Y-7169782D02*
X5385016Y-7179305D01*
X5385016Y-7179305D02*
X5423111Y-7179305D01*
X5423111Y-7179305D02*
X5442159Y-7169782D01*
X5442159Y-7169782D02*
X5451682Y-7160258D01*
X5451682Y-7160258D02*
X5461206Y-7141210D01*
X5461206Y-7141210D02*
X5461206Y-7103115D01*
X5461206Y-7103115D02*
X5451682Y-7084067D01*
X5451682Y-7084067D02*
X5442159Y-7074544D01*
X5442159Y-7074544D02*
X5423111Y-7065020D01*
X5537397Y-6979305D02*
X5537397Y-7017401D01*
X5613587Y-6979305D02*
X5613587Y-7017401D01*
X5908825Y-7255496D02*
X5899301Y-7245972D01*
X5899301Y-7245972D02*
X5880254Y-7217401D01*
X5880254Y-7217401D02*
X5870730Y-7198353D01*
X5870730Y-7198353D02*
X5861206Y-7169782D01*
X5861206Y-7169782D02*
X5851682Y-7122163D01*
X5851682Y-7122163D02*
X5851682Y-7084067D01*
X5851682Y-7084067D02*
X5861206Y-7036448D01*
X5861206Y-7036448D02*
X5870730Y-7007877D01*
X5870730Y-7007877D02*
X5880254Y-6988829D01*
X5880254Y-6988829D02*
X5899301Y-6960258D01*
X5899301Y-6960258D02*
X5908825Y-6950734D01*
X5975492Y-6998353D02*
X5985016Y-6988829D01*
X5985016Y-6988829D02*
X6004063Y-6979305D01*
X6004063Y-6979305D02*
X6051682Y-6979305D01*
X6051682Y-6979305D02*
X6070730Y-6988829D01*
X6070730Y-6988829D02*
X6080254Y-6998353D01*
X6080254Y-6998353D02*
X6089778Y-7017401D01*
X6089778Y-7017401D02*
X6089778Y-7036448D01*
X6089778Y-7036448D02*
X6080254Y-7065020D01*
X6080254Y-7065020D02*
X5965968Y-7179305D01*
X5965968Y-7179305D02*
X6089778Y-7179305D01*
X6327873Y-7179305D02*
X6327873Y-6979305D01*
X6413587Y-7179305D02*
X6413587Y-7074544D01*
X6413587Y-7074544D02*
X6404063Y-7055496D01*
X6404063Y-7055496D02*
X6385016Y-7045972D01*
X6385016Y-7045972D02*
X6356444Y-7045972D01*
X6356444Y-7045972D02*
X6337397Y-7055496D01*
X6337397Y-7055496D02*
X6327873Y-7065020D01*
X6537397Y-7179305D02*
X6518349Y-7169782D01*
X6518349Y-7169782D02*
X6508825Y-7160258D01*
X6508825Y-7160258D02*
X6499301Y-7141210D01*
X6499301Y-7141210D02*
X6499301Y-7084067D01*
X6499301Y-7084067D02*
X6508825Y-7065020D01*
X6508825Y-7065020D02*
X6518349Y-7055496D01*
X6518349Y-7055496D02*
X6537397Y-7045972D01*
X6537397Y-7045972D02*
X6565968Y-7045972D01*
X6565968Y-7045972D02*
X6585016Y-7055496D01*
X6585016Y-7055496D02*
X6594540Y-7065020D01*
X6594540Y-7065020D02*
X6604063Y-7084067D01*
X6604063Y-7084067D02*
X6604063Y-7141210D01*
X6604063Y-7141210D02*
X6594540Y-7160258D01*
X6594540Y-7160258D02*
X6585016Y-7169782D01*
X6585016Y-7169782D02*
X6565968Y-7179305D01*
X6565968Y-7179305D02*
X6537397Y-7179305D01*
X6718349Y-7179305D02*
X6699301Y-7169782D01*
X6699301Y-7169782D02*
X6689778Y-7150734D01*
X6689778Y-7150734D02*
X6689778Y-6979305D01*
X6870730Y-7169782D02*
X6851682Y-7179305D01*
X6851682Y-7179305D02*
X6813587Y-7179305D01*
X6813587Y-7179305D02*
X6794540Y-7169782D01*
X6794540Y-7169782D02*
X6785016Y-7150734D01*
X6785016Y-7150734D02*
X6785016Y-7074544D01*
X6785016Y-7074544D02*
X6794540Y-7055496D01*
X6794540Y-7055496D02*
X6813587Y-7045972D01*
X6813587Y-7045972D02*
X6851682Y-7045972D01*
X6851682Y-7045972D02*
X6870730Y-7055496D01*
X6870730Y-7055496D02*
X6880254Y-7074544D01*
X6880254Y-7074544D02*
X6880254Y-7093591D01*
X6880254Y-7093591D02*
X6785016Y-7112639D01*
X6956444Y-7169782D02*
X6975492Y-7179305D01*
X6975492Y-7179305D02*
X7013587Y-7179305D01*
X7013587Y-7179305D02*
X7032635Y-7169782D01*
X7032635Y-7169782D02*
X7042159Y-7150734D01*
X7042159Y-7150734D02*
X7042159Y-7141210D01*
X7042159Y-7141210D02*
X7032635Y-7122163D01*
X7032635Y-7122163D02*
X7013587Y-7112639D01*
X7013587Y-7112639D02*
X6985016Y-7112639D01*
X6985016Y-7112639D02*
X6965968Y-7103115D01*
X6965968Y-7103115D02*
X6956444Y-7084067D01*
X6956444Y-7084067D02*
X6956444Y-7074544D01*
X6956444Y-7074544D02*
X6965968Y-7055496D01*
X6965968Y-7055496D02*
X6985016Y-7045972D01*
X6985016Y-7045972D02*
X7013587Y-7045972D01*
X7013587Y-7045972D02*
X7032635Y-7055496D01*
X7108825Y-7255496D02*
X7118349Y-7245972D01*
X7118349Y-7245972D02*
X7137397Y-7217401D01*
X7137397Y-7217401D02*
X7146921Y-7198353D01*
X7146921Y-7198353D02*
X7156444Y-7169782D01*
X7156444Y-7169782D02*
X7165968Y-7122163D01*
X7165968Y-7122163D02*
X7165968Y-7084067D01*
X7165968Y-7084067D02*
X7156444Y-7036448D01*
X7156444Y-7036448D02*
X7146921Y-7007877D01*
X7146921Y-7007877D02*
X7137397Y-6988829D01*
X7137397Y-6988829D02*
X7118349Y-6960258D01*
X7118349Y-6960258D02*
X7108825Y-6950734D01*
X2233762Y-7297822D02*
X2233762Y-7497822D01*
X2133762Y-7397822D02*
X2333762Y-7397822D01*
X2575492Y-7289305D02*
X2699301Y-7289305D01*
X2699301Y-7289305D02*
X2632634Y-7365496D01*
X2632634Y-7365496D02*
X2661206Y-7365496D01*
X2661206Y-7365496D02*
X2680254Y-7375020D01*
X2680254Y-7375020D02*
X2689777Y-7384544D01*
X2689777Y-7384544D02*
X2699301Y-7403591D01*
X2699301Y-7403591D02*
X2699301Y-7451210D01*
X2699301Y-7451210D02*
X2689777Y-7470258D01*
X2689777Y-7470258D02*
X2680254Y-7479782D01*
X2680254Y-7479782D02*
X2661206Y-7489305D01*
X2661206Y-7489305D02*
X2604063Y-7489305D01*
X2604063Y-7489305D02*
X2585015Y-7479782D01*
X2585015Y-7479782D02*
X2575492Y-7470258D01*
X2785015Y-7470258D02*
X2794539Y-7479782D01*
X2794539Y-7479782D02*
X2785015Y-7489305D01*
X2785015Y-7489305D02*
X2775492Y-7479782D01*
X2775492Y-7479782D02*
X2785015Y-7470258D01*
X2785015Y-7470258D02*
X2785015Y-7489305D01*
X2975492Y-7289305D02*
X2880253Y-7289305D01*
X2880253Y-7289305D02*
X2870730Y-7384544D01*
X2870730Y-7384544D02*
X2880253Y-7375020D01*
X2880253Y-7375020D02*
X2899301Y-7365496D01*
X2899301Y-7365496D02*
X2946920Y-7365496D01*
X2946920Y-7365496D02*
X2965968Y-7375020D01*
X2965968Y-7375020D02*
X2975492Y-7384544D01*
X2975492Y-7384544D02*
X2985015Y-7403591D01*
X2985015Y-7403591D02*
X2985015Y-7451210D01*
X2985015Y-7451210D02*
X2975492Y-7470258D01*
X2975492Y-7470258D02*
X2965968Y-7479782D01*
X2965968Y-7479782D02*
X2946920Y-7489305D01*
X2946920Y-7489305D02*
X2899301Y-7489305D01*
X2899301Y-7489305D02*
X2880253Y-7479782D01*
X2880253Y-7479782D02*
X2870730Y-7470258D01*
X3165968Y-7289305D02*
X3070730Y-7289305D01*
X3070730Y-7289305D02*
X3061206Y-7384544D01*
X3061206Y-7384544D02*
X3070730Y-7375020D01*
X3070730Y-7375020D02*
X3089777Y-7365496D01*
X3089777Y-7365496D02*
X3137396Y-7365496D01*
X3137396Y-7365496D02*
X3156444Y-7375020D01*
X3156444Y-7375020D02*
X3165968Y-7384544D01*
X3165968Y-7384544D02*
X3175492Y-7403591D01*
X3175492Y-7403591D02*
X3175492Y-7451210D01*
X3175492Y-7451210D02*
X3165968Y-7470258D01*
X3165968Y-7470258D02*
X3156444Y-7479782D01*
X3156444Y-7479782D02*
X3137396Y-7489305D01*
X3137396Y-7489305D02*
X3089777Y-7489305D01*
X3089777Y-7489305D02*
X3070730Y-7479782D01*
X3070730Y-7479782D02*
X3061206Y-7470258D01*
X3346920Y-7289305D02*
X3308825Y-7289305D01*
X3308825Y-7289305D02*
X3289777Y-7298829D01*
X3289777Y-7298829D02*
X3280253Y-7308353D01*
X3280253Y-7308353D02*
X3261206Y-7336924D01*
X3261206Y-7336924D02*
X3251682Y-7375020D01*
X3251682Y-7375020D02*
X3251682Y-7451210D01*
X3251682Y-7451210D02*
X3261206Y-7470258D01*
X3261206Y-7470258D02*
X3270730Y-7479782D01*
X3270730Y-7479782D02*
X3289777Y-7489305D01*
X3289777Y-7489305D02*
X3327873Y-7489305D01*
X3327873Y-7489305D02*
X3346920Y-7479782D01*
X3346920Y-7479782D02*
X3356444Y-7470258D01*
X3356444Y-7470258D02*
X3365968Y-7451210D01*
X3365968Y-7451210D02*
X3365968Y-7403591D01*
X3365968Y-7403591D02*
X3356444Y-7384544D01*
X3356444Y-7384544D02*
X3346920Y-7375020D01*
X3346920Y-7375020D02*
X3327873Y-7365496D01*
X3327873Y-7365496D02*
X3289777Y-7365496D01*
X3289777Y-7365496D02*
X3270730Y-7375020D01*
X3270730Y-7375020D02*
X3261206Y-7384544D01*
X3261206Y-7384544D02*
X3251682Y-7403591D01*
X3451682Y-7489305D02*
X3451682Y-7355972D01*
X3451682Y-7375020D02*
X3461206Y-7365496D01*
X3461206Y-7365496D02*
X3480253Y-7355972D01*
X3480253Y-7355972D02*
X3508825Y-7355972D01*
X3508825Y-7355972D02*
X3527873Y-7365496D01*
X3527873Y-7365496D02*
X3537396Y-7384544D01*
X3537396Y-7384544D02*
X3537396Y-7489305D01*
X3537396Y-7384544D02*
X3546920Y-7365496D01*
X3546920Y-7365496D02*
X3565968Y-7355972D01*
X3565968Y-7355972D02*
X3594539Y-7355972D01*
X3594539Y-7355972D02*
X3613587Y-7365496D01*
X3613587Y-7365496D02*
X3623111Y-7384544D01*
X3623111Y-7384544D02*
X3623111Y-7489305D01*
X3718349Y-7489305D02*
X3718349Y-7355972D01*
X3718349Y-7375020D02*
X3727873Y-7365496D01*
X3727873Y-7365496D02*
X3746920Y-7355972D01*
X3746920Y-7355972D02*
X3775492Y-7355972D01*
X3775492Y-7355972D02*
X3794539Y-7365496D01*
X3794539Y-7365496D02*
X3804063Y-7384544D01*
X3804063Y-7384544D02*
X3804063Y-7489305D01*
X3804063Y-7384544D02*
X3813587Y-7365496D01*
X3813587Y-7365496D02*
X3832634Y-7355972D01*
X3832634Y-7355972D02*
X3861206Y-7355972D01*
X3861206Y-7355972D02*
X3880254Y-7365496D01*
X3880254Y-7365496D02*
X3889777Y-7384544D01*
X3889777Y-7384544D02*
X3889777Y-7489305D01*
X4280254Y-7279782D02*
X4108825Y-7536924D01*
X4537397Y-7289305D02*
X4556444Y-7289305D01*
X4556444Y-7289305D02*
X4575492Y-7298829D01*
X4575492Y-7298829D02*
X4585016Y-7308353D01*
X4585016Y-7308353D02*
X4594539Y-7327401D01*
X4594539Y-7327401D02*
X4604063Y-7365496D01*
X4604063Y-7365496D02*
X4604063Y-7413115D01*
X4604063Y-7413115D02*
X4594539Y-7451210D01*
X4594539Y-7451210D02*
X4585016Y-7470258D01*
X4585016Y-7470258D02*
X4575492Y-7479782D01*
X4575492Y-7479782D02*
X4556444Y-7489305D01*
X4556444Y-7489305D02*
X4537397Y-7489305D01*
X4537397Y-7489305D02*
X4518349Y-7479782D01*
X4518349Y-7479782D02*
X4508825Y-7470258D01*
X4508825Y-7470258D02*
X4499301Y-7451210D01*
X4499301Y-7451210D02*
X4489778Y-7413115D01*
X4489778Y-7413115D02*
X4489778Y-7365496D01*
X4489778Y-7365496D02*
X4499301Y-7327401D01*
X4499301Y-7327401D02*
X4508825Y-7308353D01*
X4508825Y-7308353D02*
X4518349Y-7298829D01*
X4518349Y-7298829D02*
X4537397Y-7289305D01*
X4689778Y-7470258D02*
X4699301Y-7479782D01*
X4699301Y-7479782D02*
X4689778Y-7489305D01*
X4689778Y-7489305D02*
X4680254Y-7479782D01*
X4680254Y-7479782D02*
X4689778Y-7470258D01*
X4689778Y-7470258D02*
X4689778Y-7489305D01*
X4889778Y-7489305D02*
X4775492Y-7489305D01*
X4832635Y-7489305D02*
X4832635Y-7289305D01*
X4832635Y-7289305D02*
X4813587Y-7317877D01*
X4813587Y-7317877D02*
X4794539Y-7336924D01*
X4794539Y-7336924D02*
X4775492Y-7346448D01*
X5061206Y-7355972D02*
X5061206Y-7489305D01*
X5013587Y-7279782D02*
X4965968Y-7422639D01*
X4965968Y-7422639D02*
X5089778Y-7422639D01*
X5204063Y-7289305D02*
X5223111Y-7289305D01*
X5223111Y-7289305D02*
X5242159Y-7298829D01*
X5242159Y-7298829D02*
X5251682Y-7308353D01*
X5251682Y-7308353D02*
X5261206Y-7327401D01*
X5261206Y-7327401D02*
X5270730Y-7365496D01*
X5270730Y-7365496D02*
X5270730Y-7413115D01*
X5270730Y-7413115D02*
X5261206Y-7451210D01*
X5261206Y-7451210D02*
X5251682Y-7470258D01*
X5251682Y-7470258D02*
X5242159Y-7479782D01*
X5242159Y-7479782D02*
X5223111Y-7489305D01*
X5223111Y-7489305D02*
X5204063Y-7489305D01*
X5204063Y-7489305D02*
X5185016Y-7479782D01*
X5185016Y-7479782D02*
X5175492Y-7470258D01*
X5175492Y-7470258D02*
X5165968Y-7451210D01*
X5165968Y-7451210D02*
X5156444Y-7413115D01*
X5156444Y-7413115D02*
X5156444Y-7365496D01*
X5156444Y-7365496D02*
X5165968Y-7327401D01*
X5165968Y-7327401D02*
X5175492Y-7308353D01*
X5175492Y-7308353D02*
X5185016Y-7298829D01*
X5185016Y-7298829D02*
X5204063Y-7289305D01*
X5394539Y-7289305D02*
X5413587Y-7289305D01*
X5413587Y-7289305D02*
X5432635Y-7298829D01*
X5432635Y-7298829D02*
X5442159Y-7308353D01*
X5442159Y-7308353D02*
X5451682Y-7327401D01*
X5451682Y-7327401D02*
X5461206Y-7365496D01*
X5461206Y-7365496D02*
X5461206Y-7413115D01*
X5461206Y-7413115D02*
X5451682Y-7451210D01*
X5451682Y-7451210D02*
X5442159Y-7470258D01*
X5442159Y-7470258D02*
X5432635Y-7479782D01*
X5432635Y-7479782D02*
X5413587Y-7489305D01*
X5413587Y-7489305D02*
X5394539Y-7489305D01*
X5394539Y-7489305D02*
X5375492Y-7479782D01*
X5375492Y-7479782D02*
X5365968Y-7470258D01*
X5365968Y-7470258D02*
X5356444Y-7451210D01*
X5356444Y-7451210D02*
X5346920Y-7413115D01*
X5346920Y-7413115D02*
X5346920Y-7365496D01*
X5346920Y-7365496D02*
X5356444Y-7327401D01*
X5356444Y-7327401D02*
X5365968Y-7308353D01*
X5365968Y-7308353D02*
X5375492Y-7298829D01*
X5375492Y-7298829D02*
X5394539Y-7289305D01*
X5537397Y-7289305D02*
X5537397Y-7327401D01*
X5613587Y-7289305D02*
X5613587Y-7327401D01*
X5908825Y-7565496D02*
X5899301Y-7555972D01*
X5899301Y-7555972D02*
X5880254Y-7527401D01*
X5880254Y-7527401D02*
X5870730Y-7508353D01*
X5870730Y-7508353D02*
X5861206Y-7479782D01*
X5861206Y-7479782D02*
X5851682Y-7432163D01*
X5851682Y-7432163D02*
X5851682Y-7394067D01*
X5851682Y-7394067D02*
X5861206Y-7346448D01*
X5861206Y-7346448D02*
X5870730Y-7317877D01*
X5870730Y-7317877D02*
X5880254Y-7298829D01*
X5880254Y-7298829D02*
X5899301Y-7270258D01*
X5899301Y-7270258D02*
X5908825Y-7260734D01*
X6089778Y-7489305D02*
X5975492Y-7489305D01*
X6032635Y-7489305D02*
X6032635Y-7289305D01*
X6032635Y-7289305D02*
X6013587Y-7317877D01*
X6013587Y-7317877D02*
X5994539Y-7336924D01*
X5994539Y-7336924D02*
X5975492Y-7346448D01*
X6327873Y-7489305D02*
X6327873Y-7289305D01*
X6413587Y-7489305D02*
X6413587Y-7384544D01*
X6413587Y-7384544D02*
X6404063Y-7365496D01*
X6404063Y-7365496D02*
X6385016Y-7355972D01*
X6385016Y-7355972D02*
X6356444Y-7355972D01*
X6356444Y-7355972D02*
X6337397Y-7365496D01*
X6337397Y-7365496D02*
X6327873Y-7375020D01*
X6537397Y-7489305D02*
X6518349Y-7479782D01*
X6518349Y-7479782D02*
X6508825Y-7470258D01*
X6508825Y-7470258D02*
X6499301Y-7451210D01*
X6499301Y-7451210D02*
X6499301Y-7394067D01*
X6499301Y-7394067D02*
X6508825Y-7375020D01*
X6508825Y-7375020D02*
X6518349Y-7365496D01*
X6518349Y-7365496D02*
X6537397Y-7355972D01*
X6537397Y-7355972D02*
X6565968Y-7355972D01*
X6565968Y-7355972D02*
X6585016Y-7365496D01*
X6585016Y-7365496D02*
X6594540Y-7375020D01*
X6594540Y-7375020D02*
X6604063Y-7394067D01*
X6604063Y-7394067D02*
X6604063Y-7451210D01*
X6604063Y-7451210D02*
X6594540Y-7470258D01*
X6594540Y-7470258D02*
X6585016Y-7479782D01*
X6585016Y-7479782D02*
X6565968Y-7489305D01*
X6565968Y-7489305D02*
X6537397Y-7489305D01*
X6718349Y-7489305D02*
X6699301Y-7479782D01*
X6699301Y-7479782D02*
X6689778Y-7460734D01*
X6689778Y-7460734D02*
X6689778Y-7289305D01*
X6870730Y-7479782D02*
X6851682Y-7489305D01*
X6851682Y-7489305D02*
X6813587Y-7489305D01*
X6813587Y-7489305D02*
X6794540Y-7479782D01*
X6794540Y-7479782D02*
X6785016Y-7460734D01*
X6785016Y-7460734D02*
X6785016Y-7384544D01*
X6785016Y-7384544D02*
X6794540Y-7365496D01*
X6794540Y-7365496D02*
X6813587Y-7355972D01*
X6813587Y-7355972D02*
X6851682Y-7355972D01*
X6851682Y-7355972D02*
X6870730Y-7365496D01*
X6870730Y-7365496D02*
X6880254Y-7384544D01*
X6880254Y-7384544D02*
X6880254Y-7403591D01*
X6880254Y-7403591D02*
X6785016Y-7422639D01*
X6946921Y-7565496D02*
X6956444Y-7555972D01*
X6956444Y-7555972D02*
X6975492Y-7527401D01*
X6975492Y-7527401D02*
X6985016Y-7508353D01*
X6985016Y-7508353D02*
X6994540Y-7479782D01*
X6994540Y-7479782D02*
X7004063Y-7432163D01*
X7004063Y-7432163D02*
X7004063Y-7394067D01*
X7004063Y-7394067D02*
X6994540Y-7346448D01*
X6994540Y-7346448D02*
X6985016Y-7317877D01*
X6985016Y-7317877D02*
X6975492Y-7298829D01*
X6975492Y-7298829D02*
X6956444Y-7270258D01*
X6956444Y-7270258D02*
X6946921Y-7260734D01*
M02*
