<?xml version="1.0" standalone="no"?>
 <!DOCTYPE svg PUBLIC "-//W3C//DTD SVG 1.1//EN" 
 "http://www.w3.org/Graphics/SVG/1.1/DTD/svg11.dtd"> 
<svg
  xmlns:svg="http://www.w3.org/2000/svg"
  xmlns="http://www.w3.org/2000/svg"
  xmlns:xlink="http://www.w3.org/1999/xlink"
  version="1.1"
  width="39.5986mm" height="39.5986mm" viewBox="0.0000 0.0000 39.5986 39.5986">
<title>SVG Image created as DelaySw-F_Cu.svg date 2024/01/30 17:09:30 </title>
  <desc>Image generated by PCBNEW </desc>
<g style="fill:#000000; fill-opacity:1.0000;stroke:#000000; stroke-opacity:1.0000;
stroke-linecap:round; stroke-linejoin:round;"
 transform="translate(0 0) scale(1 1)">
</g>
<g style="fill:#000000; fill-opacity:0.0; 
stroke:#000000; stroke-width:0.0000; stroke-opacity:1; 
stroke-linecap:round; stroke-linejoin:round;">
<g >
</g>
<g style="fill:#C83434; fill-opacity:0.0; 
stroke:#C83434; stroke-width:0.0000; stroke-opacity:1; 
stroke-linecap:round; stroke-linejoin:round;">
</g>
<g style="fill:#C83434; fill-opacity:0.0; 
stroke:#C83434; stroke-width:0.0000; stroke-opacity:1; 
stroke-linecap:round; stroke-linejoin:round;">
</g>
<g style="fill:#C83434; fill-opacity:1.0000; 
stroke:#C83434; stroke-width:0.0000; stroke-opacity:1; 
stroke-linecap:round; stroke-linejoin:round;">
<path style="fill:#C83434; fill-opacity:1.0000; 
stroke:#C83434; stroke-width:0.0000; stroke-opacity:1; 
stroke-linecap:round; stroke-linejoin:round;fill-rule:evenodd;"
d="M 22.1204,10.2432
22.1013,10.3389
22.0472,10.4200
21.9660,10.4742
21.8704,10.4932
21.3704,10.4932
21.2747,10.4742
21.1936,10.4200
21.1394,10.3389
21.1204,10.2432
21.1204,9.2932
21.1394,9.1975
21.1936,9.1164
21.2747,9.0622
21.3704,9.0432
21.8704,9.0432
21.9660,9.0622
22.0472,9.1164
22.1013,9.1975
22.1204,9.2932
Z" /> 
<path style="fill:#C83434; fill-opacity:1.0000; 
stroke:#C83434; stroke-width:0.0000; stroke-opacity:1; 
stroke-linecap:round; stroke-linejoin:round;fill-rule:evenodd;"
d="M 20.2204,10.2432
20.2013,10.3389
20.1472,10.4200
20.0660,10.4742
19.9704,10.4932
19.4704,10.4932
19.3747,10.4742
19.2936,10.4200
19.2394,10.3389
19.2204,10.2432
19.2204,9.2932
19.2394,9.1975
19.2936,9.1164
19.3747,9.0622
19.4704,9.0432
19.9704,9.0432
20.0660,9.0622
20.1472,9.1164
20.2013,9.1975
20.2204,9.2932
Z" /> 
</g>
<g >
</g>
<g style="fill:#C83434; fill-opacity:1.0000; 
stroke:#C83434; stroke-width:0.0000; stroke-opacity:1; 
stroke-linecap:round; stroke-linejoin:round;">
<path style="fill:#C83434; fill-opacity:1.0000; 
stroke:#C83434; stroke-width:0.0000; stroke-opacity:1; 
stroke-linecap:round; stroke-linejoin:round;fill-rule:evenodd;"
d="M 12.7059,23.5682
12.6945,23.6256
12.6619,23.6743
12.6133,23.7068
12.5559,23.7182
11.3809,23.7182
11.3235,23.7068
11.2748,23.6743
11.2423,23.6256
11.2309,23.5682
11.2309,23.2682
11.2423,23.2108
11.2748,23.1622
11.3235,23.1296
11.3809,23.1182
12.5559,23.1182
12.6133,23.1296
12.6619,23.1622
12.6945,23.2108
12.7059,23.2682
Z" /> 
<path style="fill:#C83434; fill-opacity:1.0000; 
stroke:#C83434; stroke-width:0.0000; stroke-opacity:1; 
stroke-linecap:round; stroke-linejoin:round;fill-rule:evenodd;"
d="M 12.7059,21.6682
12.6945,21.7256
12.6619,21.7743
12.6133,21.8068
12.5559,21.8182
11.3809,21.8182
11.3235,21.8068
11.2748,21.7743
11.2423,21.7256
11.2309,21.6682
11.2309,21.3682
11.2423,21.3108
11.2748,21.2622
11.3235,21.2296
11.3809,21.2182
12.5559,21.2182
12.6133,21.2296
12.6619,21.2622
12.6945,21.3108
12.7059,21.3682
Z" /> 
<path style="fill:#C83434; fill-opacity:1.0000; 
stroke:#C83434; stroke-width:0.0000; stroke-opacity:1; 
stroke-linecap:round; stroke-linejoin:round;fill-rule:evenodd;"
d="M 10.8309,22.6182
10.8195,22.6756
10.7869,22.7243
10.7383,22.7568
10.6809,22.7682
9.5059,22.7682
9.4485,22.7568
9.3998,22.7243
9.3673,22.6756
9.3559,22.6182
9.3559,22.3182
9.3673,22.2608
9.3998,22.2122
9.4485,22.1796
9.5059,22.1682
10.6809,22.1682
10.7383,22.1796
10.7869,22.2122
10.8195,22.2608
10.8309,22.3182
Z" /> 
</g>
<g >
</g>
<g style="fill:#C83434; fill-opacity:1.0000; 
stroke:#C83434; stroke-width:0.0000; stroke-opacity:1; 
stroke-linecap:round; stroke-linejoin:round;">
<path style="fill:#C83434; fill-opacity:1.0000; 
stroke:#C83434; stroke-width:0.0000; stroke-opacity:1; 
stroke-linecap:round; stroke-linejoin:round;fill-rule:evenodd;"
d="M 8.4194,15.3662
8.4384,15.2705
8.4926,15.1894
8.5737,15.1352
8.6694,15.1162
9.2944,15.1162
9.3900,15.1352
9.4712,15.1894
9.5253,15.2705
9.5444,15.3662
9.5444,16.6162
9.5253,16.7119
9.4712,16.7930
9.3900,16.8472
9.2944,16.8662
8.6694,16.8662
8.5737,16.8472
8.4926,16.7930
8.4384,16.7119
8.4194,16.6162
Z" /> 
<path style="fill:#C83434; fill-opacity:1.0000; 
stroke:#C83434; stroke-width:0.0000; stroke-opacity:1; 
stroke-linecap:round; stroke-linejoin:round;fill-rule:evenodd;"
d="M 11.3444,15.3662
11.3634,15.2705
11.4176,15.1894
11.4987,15.1352
11.5944,15.1162
12.2194,15.1162
12.3150,15.1352
12.3962,15.1894
12.4503,15.2705
12.4694,15.3662
12.4694,16.6162
12.4503,16.7119
12.3962,16.7930
12.3150,16.8472
12.2194,16.8662
11.5944,16.8662
11.4987,16.8472
11.4176,16.7930
11.3634,16.7119
11.3444,16.6162
Z" /> 
</g>
<g >
</g>
<g style="fill:#C83434; fill-opacity:1.0000; 
stroke:#C83434; stroke-width:0.0000; stroke-opacity:1; 
stroke-linecap:round; stroke-linejoin:round;">
<path style="fill:#C83434; fill-opacity:1.0000; 
stroke:#C83434; stroke-width:0.0000; stroke-opacity:1; 
stroke-linecap:round; stroke-linejoin:round;fill-rule:evenodd;"
d="M 7.1104,18.4472
7.1104,20.6472
4.9104,20.6472
4.9104,18.4472
Z" /> 
<path style="fill:#C83434; fill-opacity:1.0000; 
stroke:#C83434; stroke-width:0.0000; stroke-opacity:1; 
stroke-linecap:round; stroke-linejoin:round;fill-rule:evenodd;"
d="M 4.3604,18.4472
4.3604,20.6472
3.1104,20.6472
3.1104,18.4472
Z" /> 
</g>
<g >
</g>
<g style="fill:#C83434; fill-opacity:1.0000; 
stroke:#C83434; stroke-width:0.0000; stroke-opacity:1; 
stroke-linecap:round; stroke-linejoin:round;">
<path style="fill:#C83434; fill-opacity:1.0000; 
stroke:#C83434; stroke-width:0.0000; stroke-opacity:1; 
stroke-linecap:round; stroke-linejoin:round;fill-rule:evenodd;"
d="M 27.2364,13.7742
27.2173,13.8699
27.1632,13.9510
27.0820,14.0052
26.9864,14.0242
26.4614,14.0242
26.3657,14.0052
26.2846,13.9510
26.2304,13.8699
26.2114,13.7742
26.2114,12.8742
26.2304,12.7785
26.2846,12.6974
26.3657,12.6432
26.4614,12.6242
26.9864,12.6242
27.0820,12.6432
27.1632,12.6974
27.2173,12.7785
27.2364,12.8742
Z" /> 
<path style="fill:#C83434; fill-opacity:1.0000; 
stroke:#C83434; stroke-width:0.0000; stroke-opacity:1; 
stroke-linecap:round; stroke-linejoin:round;fill-rule:evenodd;"
d="M 25.4114,13.7742
25.3923,13.8699
25.3382,13.9510
25.2570,14.0052
25.1614,14.0242
24.6364,14.0242
24.5407,14.0052
24.4596,13.9510
24.4054,13.8699
24.3864,13.7742
24.3864,12.8742
24.4054,12.7785
24.4596,12.6974
24.5407,12.6432
24.6364,12.6242
25.1614,12.6242
25.2570,12.6432
25.3382,12.6974
25.3923,12.7785
25.4114,12.8742
Z" /> 
</g>
<g >
</g>
<g style="fill:#C83434; fill-opacity:1.0000; 
stroke:#C83434; stroke-width:0.0000; stroke-opacity:1; 
stroke-linecap:round; stroke-linejoin:round;">
<path style="fill:#C83434; fill-opacity:1.0000; 
stroke:#C83434; stroke-width:0.0000; stroke-opacity:1; 
stroke-linecap:round; stroke-linejoin:round;fill-rule:evenodd;"
d="M 23.8504,21.1742
23.8504,21.9242
22.8504,21.9242
22.8504,21.1742
Z" /> 
<path style="fill:#C83434; fill-opacity:1.0000; 
stroke:#C83434; stroke-width:0.0000; stroke-opacity:1; 
stroke-linecap:round; stroke-linejoin:round;fill-rule:evenodd;"
d="M 17.8504,21.1742
17.8504,21.9242
16.8504,21.9242
16.8504,21.1742
Z" /> 
<path style="fill:#C83434; fill-opacity:1.0000; 
stroke:#C83434; stroke-width:0.0000; stroke-opacity:1; 
stroke-linecap:round; stroke-linejoin:round;fill-rule:evenodd;"
d="M 23.8504,17.4242
23.8504,18.1742
22.8504,18.1742
22.8504,17.4242
Z" /> 
<path style="fill:#C83434; fill-opacity:1.0000; 
stroke:#C83434; stroke-width:0.0000; stroke-opacity:1; 
stroke-linecap:round; stroke-linejoin:round;fill-rule:evenodd;"
d="M 17.8504,17.4242
17.8504,18.1742
16.8504,18.1742
16.8504,17.4242
Z" /> 
</g>
<g >
</g>
<g style="fill:#C83434; fill-opacity:1.0000; 
stroke:#C83434; stroke-width:0.0000; stroke-opacity:1; 
stroke-linecap:round; stroke-linejoin:round;">
<path style="fill:#C83434; fill-opacity:1.0000; 
stroke:#C83434; stroke-width:0.0000; stroke-opacity:1; 
stroke-linecap:round; stroke-linejoin:round;fill-rule:evenodd;"
d="M 22.0529,13.7742
22.0338,13.8699
21.9797,13.9510
21.8985,14.0052
21.8029,14.0242
21.2779,14.0242
21.1822,14.0052
21.1011,13.9510
21.0469,13.8699
21.0279,13.7742
21.0279,12.8742
21.0469,12.7785
21.1011,12.6974
21.1822,12.6432
21.2779,12.6242
21.8029,12.6242
21.8985,12.6432
21.9797,12.6974
22.0338,12.7785
22.0529,12.8742
Z" /> 
<path style="fill:#C83434; fill-opacity:1.0000; 
stroke:#C83434; stroke-width:0.0000; stroke-opacity:1; 
stroke-linecap:round; stroke-linejoin:round;fill-rule:evenodd;"
d="M 20.2279,13.7742
20.2088,13.8699
20.1547,13.9510
20.0735,14.0052
19.9779,14.0242
19.4529,14.0242
19.3572,14.0052
19.2761,13.9510
19.2219,13.8699
19.2029,13.7742
19.2029,12.8742
19.2219,12.7785
19.2761,12.6974
19.3572,12.6432
19.4529,12.6242
19.9779,12.6242
20.0735,12.6432
20.1547,12.6974
20.2088,12.7785
20.2279,12.8742
Z" /> 
</g>
<g >
</g>
<g style="fill:#C83434; fill-opacity:1.0000; 
stroke:#C83434; stroke-width:0.0000; stroke-opacity:1; 
stroke-linecap:round; stroke-linejoin:round;">
<circle cx="15.9114" cy="31.8662" r="1.5000" /> 
</g>
<g style="fill:#C83434; fill-opacity:1.0000; 
stroke:#C83434; stroke-width:0.0212; stroke-opacity:1; 
stroke-linecap:round; stroke-linejoin:round;">
</g>
<g style="fill:#C83434; fill-opacity:1.0000; 
stroke:#C83434; stroke-width:0.0000; stroke-opacity:1; 
stroke-linecap:round; stroke-linejoin:round;">
<circle cx="15.9114" cy="6.4662" r="1.5000" /> 
</g>
<g style="fill:#C83434; fill-opacity:1.0000; 
stroke:#C83434; stroke-width:0.0212; stroke-opacity:1; 
stroke-linecap:round; stroke-linejoin:round;">
</g>
<g >
</g>
<g style="fill:#ECECEC; fill-opacity:1.0000; 
stroke:#ECECEC; stroke-width:0.0212; stroke-opacity:1; 
stroke-linecap:round; stroke-linejoin:round;">
</g>
<g style="fill:#ECECEC; fill-opacity:1.0000; 
stroke:#ECECEC; stroke-width:0.0000; stroke-opacity:1; 
stroke-linecap:round; stroke-linejoin:round;">
<circle cx="35.8444" cy="19.5472" r="1.9050" /> 
</g>
<g style="fill:#ECECEC; fill-opacity:1.0000; 
stroke:#ECECEC; stroke-width:0.0212; stroke-opacity:1; 
stroke-linecap:round; stroke-linejoin:round;">
</g>
<g style="fill:#ECECEC; fill-opacity:1.0000; 
stroke:#ECECEC; stroke-width:0.0000; stroke-opacity:1; 
stroke-linecap:round; stroke-linejoin:round;">
<circle cx="12.2224" cy="20.0552" r="0.4000" /> 
</g>
<g style="fill:#ECECEC; fill-opacity:1.0000; 
stroke:#ECECEC; stroke-width:0.0212; stroke-opacity:1; 
stroke-linecap:round; stroke-linejoin:round;">
</g>
<g >
</g>
<g style="fill:#C83434; fill-opacity:1.0000; 
stroke:#C83434; stroke-width:0.0212; stroke-opacity:1; 
stroke-linecap:round; stroke-linejoin:round;">
</g>
<g style="fill:#C83434; fill-opacity:1.0000; 
stroke:#C83434; stroke-width:0.5000; stroke-opacity:1; 
stroke-linecap:round; stroke-linejoin:round;">
</g>
<g style="fill:#C83434; fill-opacity:0.0; 
stroke:#C83434; stroke-width:0.5000; stroke-opacity:1; 
stroke-linecap:round; stroke-linejoin:round;">
<path d="M23.3504 17.7992
L24.8924 17.7992
" />
<path d="M24.6684 9.7682
L26.7239 11.8237
" />
<path d="M24.8924 17.7992
L26.7239 15.9677
" />
<path d="M21.6204 9.7682
L24.6684 9.7682
" />
<path d="M11.9684 23.4182
L12.6694 23.4182
" />
<path d="M13.7464 22.3412
L13.7464 19.9282
" />
<path d="M12.6694 23.4182
L13.7464 22.3412
" />
<path d="M15.8754 17.7992
L17.3504 17.7992
" />
<path d="M26.7239 15.9677
L26.7239 13.3242
" />
<path d="M26.7239 11.8237
L26.7239 13.3242
" />
<path d="M13.7464 19.9282
L15.8754 17.7992
" />
<path d="M17.3504 17.7992
L23.3504 17.7992
" />
<path d="M17.8104 13.3242
L19.7154 13.3242
" />
<path d="M11.9684 21.5182
L11.9684 20.3092
" />
<path d="M11.9684 20.3092
L12.2224 20.0552
" />
<path d="M12.2224 18.9122
L17.8104 13.3242
" />
<path d="M19.7154 9.7732
L19.7204 9.7682
" />
<path d="M12.2224 20.0552
L12.2224 18.9122
" />
<path d="M19.7154 13.3242
L19.7154 9.7732
" />
<path d="M7.5234 19.5472
L8.9819 18.0887
" />
<path d="M8.9819 18.0887
L8.9819 15.9912
" />
<path d="M6.0104 19.5472
L7.5234 19.5472
" />
<path d="M3.7354 15.2072
L7.5234 11.4192
" />
<path d="M15.9114 9.2542
L15.9114 6.4662
" />
<path d="M13.7464 11.4192
L15.9114 9.2542
" />
<path d="M9.8094 31.8662
L15.9114 31.8662
" />
<path d="M15.9114 22.3352
L16.6974 21.5492
" />
<path d="M15.9114 31.8662
L15.9114 22.3352
" />
<path d="M3.7354 19.5472
L3.7354 15.2072
" />
<path d="M3.7354 25.7922
L9.8094 31.8662
" />
<path d="M3.7354 19.5472
L3.7354 25.7922
" />
<path d="M17.3504 21.5492
L23.3504 21.5492
" />
<path d="M16.6974 21.5492
L17.3504 21.5492
" />
<path d="M7.5234 11.4192
L13.7464 11.4192
" />
<path d="M10.0934 18.8822
L11.9069 17.0687
" />
<path d="M10.0934 22.4682
L10.0934 18.8822
" />
<path d="M11.9069 17.0687
L11.9069 15.9912
" />
<path d="M21.5404 13.3242
L24.8989 13.3242
" />
</g>
<g >
</g>
</g>
<g style="fill:#FFFFFF; fill-opacity:0.0; 
stroke:#FFFFFF; stroke-width:0.5000; stroke-opacity:1; 
stroke-linecap:round; stroke-linejoin:round;">
</g>
<g style="fill:#FFFFFF; fill-opacity:1.0000; 
stroke:#FFFFFF; stroke-width:0.0000; stroke-opacity:1; 
stroke-linecap:round; stroke-linejoin:round;">
<circle cx="35.8444" cy="19.5472" r="1.7780" /> 
</g>
<g style="fill:#FFFFFF; fill-opacity:1.0000; 
stroke:#FFFFFF; stroke-width:0.0212; stroke-opacity:1; 
stroke-linecap:round; stroke-linejoin:round;">
</g>
<g style="fill:#FFFFFF; fill-opacity:1.0000; 
stroke:#FFFFFF; stroke-width:0.0000; stroke-opacity:1; 
stroke-linecap:round; stroke-linejoin:round;">
<circle cx="12.2224" cy="20.0552" r="0.2000" /> 
</g>
<g style="fill:#FFFFFF; fill-opacity:1.0000; 
stroke:#FFFFFF; stroke-width:0.0212; stroke-opacity:1; 
stroke-linecap:round; stroke-linejoin:round;">
</g>
<g style="fill:#FFFFFF; fill-opacity:1.0000; 
stroke:#FFFFFF; stroke-width:0.0000; stroke-opacity:1; 
stroke-linecap:round; stroke-linejoin:round;">
<circle cx="15.9114" cy="31.8662" r="0.9500" /> 
</g>
<g style="fill:#FFFFFF; fill-opacity:1.0000; 
stroke:#FFFFFF; stroke-width:0.0212; stroke-opacity:1; 
stroke-linecap:round; stroke-linejoin:round;">
</g>
<g style="fill:#FFFFFF; fill-opacity:1.0000; 
stroke:#FFFFFF; stroke-width:0.0000; stroke-opacity:1; 
stroke-linecap:round; stroke-linejoin:round;">
<circle cx="15.9114" cy="6.4662" r="0.9500" /> 
</g>
<g style="fill:#FFFFFF; fill-opacity:1.0000; 
stroke:#FFFFFF; stroke-width:0.0212; stroke-opacity:1; 
stroke-linecap:round; stroke-linejoin:round;">
</g>
<g style="fill:#000000; fill-opacity:1.0000; 
stroke:#000000; stroke-width:0.0212; stroke-opacity:1; 
stroke-linecap:round; stroke-linejoin:round;">
</g>
<g style="fill:#D0D2CD; fill-opacity:1.0000; 
stroke:#D0D2CD; stroke-width:0.0212; stroke-opacity:1; 
stroke-linecap:round; stroke-linejoin:round;">
</g>
<g style="fill:#D0D2CD; fill-opacity:0.0; 
stroke:#D0D2CD; stroke-width:0.1000; stroke-opacity:1; 
stroke-linecap:round; stroke-linejoin:round;">
<circle cx="19.8012" cy="19.8012" r="19.7512" /> 
<g >
</g>
<g >
</g>
<g >
</g>
<g >
</g>
<g >
</g>
<g >
</g>
<g >
</g>
<g >
</g>
<g >
</g>
<g >
</g>
<g >
</g>
</g> 
</svg>
